<?xml version="1.0" encoding="utf-8"?>
<!-- Generator: Adobe Illustrator 19.0.0, SVG Export Plug-In . SVG Version: 6.00 Build 0)  -->
<svg version="1.2" baseProfile="tiny" id="Layer_1" xmlns="http://www.w3.org/2000/svg" xmlns:xlink="http://www.w3.org/1999/xlink"
	 x="0px" y="0px" viewBox="0 0 360 360" xml:space="preserve">
<g>
	<path fill="none" stroke="#000000" stroke-width="8" stroke-miterlimit="10" d="M58.1,188.2h27c1.2,0,2.4-0.6,3.1-1.6
		c5.3-7.5,29.5-38.8,68.4-38.8c2.5,0-34.1-8.6-34.1-51.9c0-42.6,20.2-70.6,59.4-70.6s54.3,37.9,54.3,69.5
		c0,20.9-14.4,35.2-24.2,42.5c-2.7,2-1.6,6.2,1.7,6.7c18.4,2.9,55,12.2,57.7,41c0.2,1.9,1.8,3.3,3.7,3.3h26.7c2.1,0,3.8,1.7,3.8,3.8
		v139c0,2.1-1.7,3.8-3.8,3.8H58.1c-2.1,0-3.8-1.7-3.8-3.8V192C54.3,189.9,56,188.2,58.1,188.2z"/>
	<line fill="none" stroke="#000000" stroke-width="8" stroke-miterlimit="10" x1="80.2" y1="188.2" x2="275.2" y2="188.2"/>
	<circle cx="163.7" cy="78.5" r="6.4"/>
	<circle cx="189.7" cy="78.5" r="6.4"/>
	<path fill="none" stroke="#000000" stroke-width="8" stroke-miterlimit="10" d="M149.2,98.2"/>
	<path fill="none" stroke="#000000" stroke-width="8" stroke-miterlimit="10" d="M196.9,114.7"/>
	<path fill="none" stroke="#000000" stroke-width="8" stroke-linecap="round" stroke-linejoin="bevel" stroke-miterlimit="10" d="
		M153.1,102.4c1.7,2,9.5,10.5,22.7,12c12.8,1.5,22-4.5,24.2-6.1"/>
</g>
</svg>
